<svg  fill="#f0f2f2" xmlns="http://www.w3.org/2000/svg" height="40" viewBox="0 -960 960 960" width="40"><path d="m479-82.667-65.666-59q-107.512-98.08-177.423-169.373Q166-382.333 124.834-439q-41.167-56.667-57.5-104Q51-590.334 51-640.065q0-103.8 69.352-173.367Q189.703-883 292.333-883q54.503 0 101.751 22 47.249 22 84.916 65.001Q520.667-841 566.701-862q46.034-21 98.966-21 104.048 0 173.691 69.586Q909-743.827 909-640q0 49.313-16.167 96.323-16.167 47.01-57.5 103.51-41.333 56.5-111.655 128.368T545.333-141.667l-66.333 59Zm-.333-138.999q98.491-90.664 161.579-153.665 63.088-63.002 99.588-110.002 36.5-47 50.5-83.238t14-71.309q0-60.12-38.909-99.287-38.909-39.167-99.124-39.167-47.167 0-88.067 30.167Q537.333-718 514.333-667H444q-22.008-51-63.708-81.167t-87.908-30.167q-58.99 0-97.354 38.738-38.364 38.739-38.364 99.806 0 36.433 14.44 73.562 14.44 37.128 51 84.345t98.727 109.717q62.167 62.5 157.834 150.5ZM481-500.333Z"/></svg>